<?xml version="1.0" encoding="UTF-8"?>
<svg xmlns="http://www.w3.org/2000/svg" version="1.1" xmlns:xlink="http://www.w3.org/1999/xlink" viewBox="0 0 385.5 223.7">
  <defs>
    <style>
      .cls-1 {
        fill: #0277bd;
      }

      .cls-2 {
        fill: #470137;
      }

      .cls-3 {
        fill: #073042;
      }

      .cls-4 {
        fill: #00a8e1;
      }

      .cls-5 {
        fill: #44d1fd;
      }

      .cls-6 {
        clip-path: url(#clippath-4);
      }

      .cls-7 {
        fill: url(#linear-gradient-2);
      }

      .cls-8 {
        fill: #ffca28;
      }

      .cls-9 {
        fill: #81cd39;
      }

      .cls-10 {
        fill: #99f;
      }

      .cls-11 {
        fill: #5fb832;
      }

      .cls-12, .cls-13, .cls-14 {
        fill: #fff;
      }

      .cls-15 {
        fill: #f57c00;
      }

      .cls-16 {
        fill: #3ddc84;
      }

      .cls-17 {
        fill: #01ff01;
      }

      .cls-13, .cls-18 {
        fill-rule: evenodd;
      }

      .cls-19 {
        fill: #300;
      }

      .cls-20 {
        fill: #4285f4;
      }

      .cls-21 {
        fill: #a52714;
        isolation: isolate;
        opacity: .2;
      }

      .cls-22, .cls-23 {
        fill: none;
      }

      .cls-24 {
        fill: url(#linear-gradient-4);
      }

      .cls-25 {
        fill: #242938;
      }

      .cls-14 {
        fill-opacity: .2;
      }

      .cls-26 {
        fill: #001e36;
      }

      .cls-27 {
        fill: #22d3c5;
      }

      .cls-28 {
        fill: #cd6799;
      }

      .cls-29 {
        fill: #ffa000;
      }

      .cls-30 {
        fill: url(#linear-gradient-3);
      }

      .cls-31 {
        clip-path: url(#clippath-1);
      }

      .cls-32 {
        fill: url(#linear-gradient-5);
      }

      .cls-33 {
        fill: #ff61f6;
      }

      .cls-34 {
        fill: #ff0101;
      }

      .cls-35 {
        fill: #f0db4f;
      }

      .cls-36 {
        fill: #1fbcfd;
      }

      .cls-37 {
        clip-path: url(#clippath-5);
      }

      .cls-38 {
        opacity: .1;
      }

      .cls-39 {
        clip-path: url(#clippath-3);
      }

      .cls-40 {
        fill: #e14e1d;
      }

      .cls-41 {
        fill: #ee4c2c;
      }

      .cls-42 {
        fill: #323330;
      }

      .cls-43 {
        fill: url(#linear-gradient-7);
      }

      .cls-44 {
        fill: url(#linear-gradient-6);
      }

      .cls-23 {
        stroke: #fff;
        stroke-miterlimit: 10;
        stroke-width: 1.9px;
      }

      .cls-45 {
        display: none;
      }

      .cls-46 {
        fill: #f03c2e;
      }

      .cls-47 {
        fill: #ebebeb;
      }

      .cls-48 {
        fill: #0075c9;
      }

      .cls-49 {
        fill: #31a8ff;
      }

      .cls-50 {
        fill: #394aab;
      }

      .cls-51 {
        clip-path: url(#clippath-2);
      }

      .cls-52 {
        fill: #3870b2;
      }

      .cls-53 {
        fill: #003b57;
      }

      .cls-54 {
        fill: #00005b;
      }

      .cls-55 {
        fill: url(#linear-gradient);
      }

      .cls-56 {
        fill: #f58219;
      }

      .cls-57 {
        clip-path: url(#clippath);
      }

      .cls-58 {
        fill: #d9d9d9;
      }

      .cls-59 {
        fill: #0101ff;
      }

      .cls-60 {
        fill: #ff9a00;
      }

      .cls-61 {
        fill: #08589c;
      }

      .cls-62 {
        fill: #00c4b3;
      }
    </style>
    <linearGradient id="linear-gradient" x1="40.5" y1="-38.2" x2="345" y2="266.5" gradientTransform="translate(0 226) scale(1 -1)" gradientUnits="userSpaceOnUse">
      <stop offset="0" stop-color="#354469"/>
      <stop offset="1" stop-color="#516ba9"/>
    </linearGradient>
    <linearGradient id="linear-gradient-2" x1="533.9" y1="1501.9" x2="628.9" y2="1596" gradientTransform="translate(22.2 -279.2) scale(.2)" gradientUnits="userSpaceOnUse">
      <stop offset="0" stop-color="#387eb8"/>
      <stop offset="1" stop-color="#366994"/>
    </linearGradient>
    <linearGradient id="linear-gradient-3" x1="592.8" y1="1561.6" x2="694.8" y2="1658.1" gradientTransform="translate(22.2 -279.2) scale(.2)" gradientUnits="userSpaceOnUse">
      <stop offset="0" stop-color="#ffe052"/>
      <stop offset="1" stop-color="#ffc331"/>
    </linearGradient>
    <linearGradient id="linear-gradient-4" x1="479.3" y1="1527.3" x2="653.5" y2="1619.8" gradientTransform="translate(247.2 -279.2) scale(.2)" gradientUnits="userSpaceOnUse">
      <stop offset="0" stop-color="#fff" stop-opacity=".1"/>
      <stop offset="1" stop-color="#fff" stop-opacity="0"/>
    </linearGradient>
    <linearGradient id="linear-gradient-5" x1="479.3" y1="1527.3" x2="653.5" y2="1619.8" gradientTransform="translate(247.2 -279.2) scale(.2)" gradientUnits="userSpaceOnUse">
      <stop offset="0" stop-color="#fff" stop-opacity=".1"/>
      <stop offset="1" stop-color="#fff" stop-opacity="0"/>
    </linearGradient>
    <clipPath id="clippath">
      <rect class="cls-22" x="228.7" y="71.4" width="36" height="27"/>
    </clipPath>
    <linearGradient id="linear-gradient-6" x1="452.6" y1="1443.6" x2="698.1" y2="1689" gradientTransform="translate(191 -222.9) scale(.2)" gradientUnits="userSpaceOnUse">
      <stop offset="0" stop-color="#ff5c00"/>
      <stop offset="1" stop-color="#ff0f00"/>
    </linearGradient>
    <clipPath id="clippath-1">
      <rect class="cls-22" x="122.6" y="122.6" width="32.4" height="32.4"/>
    </clipPath>
    <clipPath id="clippath-2">
      <rect class="cls-22" x="169.7" y="115.8" width="46" height="46" rx="10.8" ry="10.8"/>
    </clipPath>
    <linearGradient id="linear-gradient-7" x1="572" y1="1441.6" x2="572" y2="1668.4" gradientTransform="translate(78.4 -166.7) scale(.2)" gradientUnits="userSpaceOnUse">
      <stop offset="0" stop-color="#97d9f6"/>
      <stop offset=".9" stop-color="#0f80cc"/>
      <stop offset="1" stop-color="#0f80cc"/>
    </linearGradient>
    <clipPath id="clippath-3">
      <rect class="cls-22" x="282.6" y="120.8" width="36" height="36"/>
    </clipPath>
    <clipPath id="clippath-4">
      <rect class="cls-22" x="331.5" y="115.8" width="46" height="46"/>
    </clipPath>
    <clipPath id="clippath-5">
      <rect class="cls-22" x="338.7" y="123" width="31.5" height="31.5"/>
    </clipPath>
  </defs>
  <!-- Generator: Adobe Illustrator 28.6.0, SVG Export Plug-In . SVG Version: 1.2.0 Build 709)  -->
  <g>
    <g id="Layer_1">
      <g>
        <g id="Layer_2" class="cls-45">
          <rect class="cls-55" width="385.5" height="223.7"/>
        </g>
        <g id="Layer_1-2" data-name="Layer_1" class="cls-38">
          <g>
            <rect class="cls-50" x="7.9" y="7.9" width="46" height="46" rx="10.8" ry="10.8"/>
            <path class="cls-12" d="M32,13.9c6.3,0,11.8,3.4,14.8,8.5h0l-7.4,4.2c-1.5-2.5-4.1-4.2-7.2-4.2h0c-4.7,0-8.5,3.8-8.5,8.5s.4,3,1.1,4.2c1.5,2.6,4.2,4.3,7.4,4.3s6-1.7,7.4-4.3h0l7.4,4.4c-2.9,5.1-8.4,8.5-14.6,8.5h-.2c-6.3,0-11.9-3.5-14.8-8.6-1.4-2.5-2.3-5.4-2.3-8.5,0-9.4,7.6-17.1,17.1-17.1h-.2Z"/>
          </g>
          <g>
            <rect class="cls-25" x="61.9" y="7.9" width="46" height="46" rx="10.8" ry="10.8"/>
            <path class="cls-12" d="M80.1,40.8s-1.4.8,1,1.1c2.8.4,4.3.3,7.4-.3,0,0,.8.5,2,1-7,3-15.9-.2-10.4-1.7h0ZM79.2,36.9s-1.5,1.1.8,1.4c3.1.3,5.5.4,9.6-.5,0,0,.5.6,1.4.9-8.5,2.5-18,.2-11.9-1.8h0ZM95.8,43.7s1,.8-1.1,1.5c-4,1.2-16.9,1.6-20.5,0-1.3-.5,1.1-1.3,1.9-1.4.8-.2,1.2-.2,1.2-.2-1.4-1-9.2,2-4,2.8,14.3,2.3,26.2-1,22.5-2.7h0ZM80.8,32.8s-6.5,1.6-2.3,2.1c1.8.2,5.3.2,8.6,0,2.7-.2,5.4-.7,5.4-.7,0,0-1,.4-1.6.8-6.7,1.7-19.5,1-15.8-.8,3.1-1.5,5.7-1.3,5.7-1.3h0ZM92.5,39.3c6.7-3.5,3.6-6.8,1.4-6.4-.5,0-.8.2-.8.2,0,0,.2-.4.6-.5,4.3-1.5,7.6,4.5-1.4,6.8v-.2h.2ZM81.5,48.8c6.5.4,16.4-.2,16.6-3.3,0,0-.5,1.2-5.3,2.1-5.5,1-12.4.9-16.4.2,0,0,.8.7,5.1,1h0Z"/>
            <path class="cls-56" d="M88.4,13s3.7,3.8-3.5,9.5c-5.8,4.6-1.3,7.3,0,10.3-3.4-3.1-5.9-5.8-4.2-8.3,2.5-3.7,9.3-5.5,7.7-11.5ZM86.5,30.2c1.7,2-.5,3.8-.5,3.8,0,0,4.4-2.3,2.4-5.1-1.9-2.7-3.3-4,4.5-8.5,0,0-12.3,3.1-6.4,9.8h0Z"/>
          </g>
          <g>
            <rect class="cls-25" x="115.8" y="7.9" width="46" height="46" rx="10.8" ry="10.8"/>
            <path class="cls-7" d="M138.7,13.1c-9.1,0-8.6,4-8.6,4v4.1h8.7v1.2h-12.2s-5.8-.7-5.8,8.5,5.1,8.9,5.1,8.9h3v-4.3s-.2-5.1,5-5.1h8.6s4.9,0,4.9-4.7v-7.9s.7-4.8-8.8-4.8h.1ZM133.9,15.9c.9,0,1.6.7,1.6,1.6s-.7,1.6-1.6,1.6-1.6-.7-1.6-1.6.7-1.6,1.6-1.6Z"/>
            <path class="cls-30" d="M138.9,48.9c9.1,0,8.6-4,8.6-4v-4.1h-8.7v-1.2h12.2s5.8.7,5.8-8.5-5.1-8.9-5.1-8.9h-3v4.3s.2,5.1-5,5.1h-8.6s-4.9,0-4.9,4.7v7.9s-.7,4.8,8.8,4.8h-.1ZM143.7,46.2c-.9,0-1.6-.7-1.6-1.6s.7-1.6,1.6-1.6,1.6.7,1.6,1.6-.7,1.6-1.6,1.6Z"/>
          </g>
          <g>
            <rect class="cls-25" x="169.7" y="7.9" width="46" height="46" rx="10.8" ry="10.8"/>
            <path class="cls-62" d="M185.5,23.6l-2.1-2.1v15.8c0,.3,0,.7.2,1.1l16.6,5.8,4.1-1.8h0l-18.8-18.8h0Z"/>
            <path class="cls-27" d="M183.6,38.4h0ZM204.3,42.4l-4.1,1.8-16.6-5.8c.3,1.2,1,2.6,1.8,3.3l5.4,5.4h12l1.5-4.7h0Z"/>
            <path class="cls-48" d="M183.4,21.5l-6.4,9.7c-.5.6-.3,1.8.6,2.6l3.7,3.7,2.3.8c-.1-.4-.2-.8-.2-1.1v-15.8h0Z"/>
            <path class="cls-48" d="M200.3,21.7c-.4,0-.8-.2-1.1-.2h-15.8l20.9,20.9,1.8-4.1-5.9-16.6h.1Z"/>
            <path class="cls-4" d="M200.3,21.7h0ZM203.6,23.5c-.8-.8-2.1-1.5-3.3-1.8l5.9,16.6-1.8,4.1,4.5-1.4v-12.3l-5.2-5.2h0Z"/>
            <path class="cls-62" d="M199.5,19.4l-3.7-3.7c-.9-.9-2.1-1.1-2.6-.6l-9.7,6.4h15.8c.3,0,.7,0,1.1.2l-.8-2.3h-.1Z"/>
          </g>
          <g>
            <rect class="cls-25" x="223.7" y="7.9" width="46" height="46" rx="10.8" ry="10.8"/>
            <path class="cls-5" d="M249.7,14.8h10l-16.8,16.8-4.4,4.4-5-5,16.2-16.2h0ZM249.6,29.8c.1-.2.4,0,.6-.1h9.6l-8.7,8.7-5-5,3.6-3.6h-.1Z"/>
            <path class="cls-36" d="M241,38.4l5-5,5,5h0l-5,5-5-5h0Z"/>
            <path class="cls-61" d="M246,43.4l5-5,8.7,8.7h-9.8c-.2,0-.3,0-.4-.2l-3.5-3.5h0Z"/>
          </g>
          <g>
            <rect class="cls-25" x="277.6" y="7.9" width="46" height="46" rx="10.8" ry="10.8"/>
            <path class="cls-3" d="M296.8,16.7h-8.3c-1.7,0-3,1.4-3,3.2s1.2,3.1,2.9,3.2h8.5v-6.3h-.1Z"/>
            <path class="cls-20" d="M315.7,44.8h-27.2c-1.7,0-3-1.4-3-3.2v-21.8c0,1.8,1.4,3.2,3,3.2h22.7s4.4-.4,4.4,3.1v18.7h.1Z"/>
            <path class="cls-52" d="M303,33.7c1.2-1,1.4-2.7.5-4-.5-.7-1.3-1.1-2.1-1.1h.5v-1.8c0-.2,0-.4-.3-.5-.3-.2-.6,0-.7.2v2.1c-1.5.2-2.5,1.7-2.3,3.3h0c.1.8.5,1.4,1.1,1.9l-5,11.1h3.3l2.3-5.1c.3-.6,1-.9,1.6-.6.2,0,.4.3.6.6l2.4,5.1h3.3l-5.2-11.2h0ZM301.3,33.2c-.9,0-1.7-.8-1.7-1.8s.8-1.8,1.7-1.7c.4,0,.8.2,1.2.5.7.7.7,1.8,0,2.5-.3.3-.7.5-1.2.5Z"/>
            <path class="cls-12" d="M295,18.2h11.7v2.2h-11.7v-2.2Z"/>
            <path class="cls-3" d="M300.5,29.6c.9,0,1.7.8,1.7,1.8s-.8,1.8-1.7,1.7c-.9,0-1.7-.8-1.7-1.8s.2-.9.5-1.2c.3-.3.8-.5,1.2-.5ZM301.1,28.6v-1.8c0-.2,0-.4-.3-.5-.3-.2-.6,0-.7.2v2.1c-1.5.2-2.5,1.7-2.3,3.3h0c.1.8.5,1.4,1.1,1.9l-6.3,14c-.2.5-.2,1.1.1,1.6.5.7,1.4.9,2.1.4.2-.2.4-.4.5-.6l4.2-9.3c.3-.6,1-.9,1.6-.6.2,0,.4.3.6.6l4.3,9.2c.4.8,1.2,1.1,2,.7.7-.4,1-1.3.7-2.1l-6.5-14c1.2-1,1.4-2.8.4-4-.4-.5-.9-.8-1.4-1h-.1Z"/>
            <path class="cls-16" d="M305,20.2c-.4,0-.8-.3-.8-.8s0-.5.2-.6c.3-.3.8-.3,1.1,0,.1.2.2.4.2.6,0,.5-.4.8-.8.8h0ZM296.2,20.2c-.4,0-.8-.4-.8-.8s0-.4.2-.6c.3-.3.8-.4,1.1-.1h0c.3.3.4.8,0,1.2h0c-.1.3-.4.4-.6.4h0ZM305.2,15.2l1.6-2.8v-.5h-.4l-1.6,2.9c-2.6-1.2-5.6-1.2-8.1,0l-1.6-2.9s-.2-.2-.3-.2-.2,0-.3.2v.3l1.6,2.8c-2.8,1.6-4.6,4.5-4.9,7.8h19c-.2-3.3-2.1-6.2-4.9-7.8"/>
            <path class="cls-3" d="M313.1,29.1h-1.2s-.1,0-.1.2v20.4s0,.2.1.2h1.3c1.5,0,2.7-1.3,2.7-2.8v-20.8c0,1.6-1.2,2.8-2.7,2.8h0Z"/>
          </g>
          <g>
            <rect class="cls-25" x="331.5" y="7.9" width="46" height="46" rx="10.8" ry="10.8"/>
            <g>
              <path class="cls-24" d="M364.3,21c0-.3-.3-.6-.6-.6s-.6,0-.8.2l-4.2,4.3-3.4-6.4c-.1-.3-.4-.4-.7-.4s-.6.2-.7.4l-1.8,3.5-4.6-8.5c-.4-.7-1.4-.5-1.5.3l-4.4,28.3,11.9,6.6c.7.4,1.7.4,2.4,0l12-6.6-3.4-21h-.2Z"/>
              <path class="cls-29" d="M341.4,42l4.4-28.3c.1-.8,1.2-1,1.5-.3l4.6,8.5,1.8-3.5c.1-.3.4-.4.7-.4s.6.2.7.4l12.4,23.5h-26.2.1Z"/>
              <rect class="cls-22" x="339.8" y="20.1" width="17.8" height="22.7"/>
              <path class="cls-15" d="M356.8,30.9l-4.8-9-10.6,20,15.3-11h.1Z"/>
              <rect class="cls-22" x="340.6" y="18.5" width="28.7" height="31.5"/>
              <path class="cls-8" d="M367.7,42l-3.4-21c0-.3-.3-.6-.6-.6s-.6,0-.8.2l-21.4,21.4,11.9,6.6c.7.4,1.7.4,2.4,0l12-6.6h-.1Z"/>
              <path class="cls-14" d="M364.3,21c0-.3-.3-.6-.6-.6s-.6,0-.8.2l-4.2,4.3-3.4-6.4c-.1-.3-.4-.4-.7-.4s-.6.2-.7.4l-1.8,3.5-4.6-8.5c-.4-.7-1.4-.5-1.5.3l-4.4,28.3h.1l17.1-17,4.3-4.2c.2-.2.5-.3.8-.2.3,0,.5.3.6.6l3.4,20.8h0l-3.4-21h-.2ZM341.5,41.9l4.4-28.1c.1-.8,1.2-1,1.5-.3l4.6,8.5,1.8-3.5c.1-.3.4-.4.7-.4s.6.2.7.4l3.3,6.2-17.1,17.1h.1Z"/>
              <path class="cls-21" d="M355.7,48.4c-.7.4-1.7.4-2.4,0l-11.8-6.6v.2l11.8,6.6c.7.4,1.7.4,2.4,0l12-6.6v-.2l-12,6.6Z"/>
              <path class="cls-32" d="M364.3,21c0-.3-.3-.6-.6-.6s-.6,0-.8.2l-4.2,4.3-3.4-6.4c-.1-.3-.4-.4-.7-.4s-.6.2-.7.4l-1.8,3.5-4.6-8.5c-.4-.7-1.4-.5-1.5.3l-4.4,28.3,11.9,6.6c.7.4,1.7.4,2.4,0l12-6.6-3.4-21h-.2Z"/>
            </g>
          </g>
          <g>
            <rect class="cls-25" x="7.9" y="61.9" width="46" height="46" rx="10.8" ry="10.8"/>
            <path class="cls-23" d="M46.9,74.3H14.9c-1,0-1.8.8-1.8,1.8v17.6c0,1,.8,1.8,1.8,1.8h32c1,0,1.8-.8,1.8-1.8v-17.6c0-1-.8-1.8-1.8-1.8Z"/>
            <path class="cls-12" d="M17.6,91v-12.2h3.6l3.6,4.5,3.6-4.5h3.6v12.2h-3.6v-7l-3.6,4.5-3.6-4.5v7s-3.6,0-3.6,0ZM40.1,91l-5.4-5.9h3.6v-6.3h3.6v6.3h3.6s-5.4,5.9-5.4,5.9Z"/>
          </g>
          <g>
            <rect class="cls-35" x="61.9" y="61.9" width="46" height="46" rx="10.8" ry="10.8"/>
            <path class="cls-42" d="M74,100.3l3.5-2.1c.7,1.2,1.3,2.2,2.8,2.2s2.3-.6,2.3-2.7v-14.7h4.3v14.8c0,4.5-2.6,6.5-6.5,6.5s-5.5-1.8-6.5-4"/>
            <path class="cls-42" d="M89.3,99.9l3.5-2c.9,1.5,2.1,2.6,4.3,2.6s2.9-.9,2.9-2.1-1.2-2-3.2-2.9l-1.1-.5c-3.1-1.3-5.2-3-5.2-6.5s2.5-5.7,6.3-5.7,4.7,1,6.1,3.5l-3.4,2.2c-.7-1.3-1.5-1.9-2.8-1.9s-2.1.8-2.1,1.9.8,1.8,2.7,2.6l1.1.5c3.7,1.6,5.7,3.2,5.7,6.8s-3.1,6-7.2,6-6.6-1.9-7.9-4.4"/>
          </g>
          <g>
            <rect class="cls-1" x="115.8" y="61.9" width="46" height="46" rx="10.8" ry="10.8"/>
            <path class="cls-47" d="M125.5,80.3l.5,5.7h12.9v-5.7s-13.4,0-13.4,0Z"/>
            <path class="cls-47" d="M138.8,68.7h-14.4l.5,5.7h13.9v-5.7Z"/>
            <path class="cls-47" d="M138.8,101.2v-6h0l-6.4-1.7-.4-4.6h-5.8l.8,9,11.8,3.3h0Z"/>
            <path class="cls-12" d="M145.9,86.1l-.7,7.4-6.4,1.7v6l11.8-3.3v-1l1.4-15.1v-1.5c.1,0,1.2-11.6,1.2-11.6h-14.4v5.7h8.1l-.5,5.9h-7.6v5.7h7.1,0Z"/>
          </g>
          <g>
            <rect class="cls-40" x="169.7" y="61.9" width="46" height="46" rx="10.8" ry="10.8"/>
            <path class="cls-12" d="M178.4,68.7l1.5,17.4h19.9l-.7,7.4-6.4,1.7-6.4-1.7-.4-4.8h-5.8l.8,9.2,11.8,3.3,11.8-3.3,1.6-17.6h-20.9l-.5-5.9h22l.5-5.7h-28.8Z"/>
            <path class="cls-47" d="M192.8,68.7h-14.4l1.5,17.4h12.8v-5.7h-7.6l-.5-5.9h8.1v-5.7h0Z"/>
            <path class="cls-47" d="M192.8,95.2h0l-6.4-1.7-.4-4.8h-5.8l.8,9.2,11.8,3.3h0v-6h0Z"/>
          </g>
          <g>
            <rect class="cls-28" x="223.7" y="61.9" width="46" height="46" rx="10.8" ry="10.8"/>
            <g class="cls-57">
              <path class="cls-12" d="M259.6,86.9c-1.3,0-2.3.3-3.3.8-.3-.7-.7-1.3-.7-1.7s-.1-.8,0-1.4.4-1.5.4-1.5c0,0,0-.4-.8-.4s-1.3,0-1.4.3c0,.2-.2.6-.3,1.1-.1.7-1.4,3-2.2,4.2-.2-.5-.5-.9-.5-1.2,0-.5-.1-.8,0-1.4,0-.6.4-1.5.4-1.5,0,0,0-.4-.8-.4s-1.3,0-1.4.3c0,.2-.2.6-.3,1.1-.2.4-1.9,4.3-2.4,5.4-.2.5-.4.9-.6,1.2h0c-.1.2-.2.4-.2.4h0c0,.2-.2.3-.3.3s-.1-.5,0-1.1c.3-1.4.9-3.5.9-3.5,0,0,.1-.4-.4-.6s-.7,0-.7,0h0c0,0,.6-2.3-1.1-2.3s-2.5,1.1-3.2,2.2c-.4.2-1.4.8-2.4,1.3l-1.2.6h0c-2-2.1-5.7-3.7-5.6-6.5,0-1.1.4-3.8,7.1-7.2,5.5-2.7,9.9-2,10.7-.3,1.1,2.4-2.4,6.8-8.1,7.5-2.2.2-3.3-.6-3.6-.9s-.3-.3-.5-.3,0,.4,0,.6c.2.4.9,1.2,2.1,1.6,1.1.3,3.6.5,6.7-.7,3.5-1.3,6.2-5.1,5.4-8.2-.8-3.2-6-4.2-11-2.4-3,1.1-6.2,2.7-8.5,4.9-2.7,2.6-3.2,4.8-3,5.7.6,3.3,5.2,5.5,7,7.1,0,0-.2,0-.2,0-.9.5-4.4,2.3-5.3,4.2-1,2.2.2,3.7.9,4,2.3.6,4.8-.5,6-2.4,1.3-1.9,1.1-4.4.5-5.6h0c.2,0,.5-.3.7-.4.5-.3.9-.5,1.3-.7-.2.6-.4,1.3-.5,2.4,0,1.2.4,2.8,1.1,3.5.3.3.6.3.9.3.8,0,1.1-.6,1.5-1.4.5-.9.9-2,.9-2,0,0-.5,2.9.9,2.9s1.1-.7,1.3-1h0c.2-.5.7-1.3,1.4-2.7.9-1.8,1.8-4,1.8-4,0,0,0,.5.3,1.5.2.5.5,1.1.7,1.7-.2.3-.3.5-.3.5h0c-.2.2-.4.5-.6.7-.7.9-1.6,1.8-1.7,2.1-.1.3-.1.6.2.8.2,0,.5.2.9,0,.6,0,1.1-.2,1.3-.3.3,0,.8-.3,1.1-.6.7-.5,1.1-1.3,1.1-2.2s-.2-1.1-.4-1.6c0,0,.1-.2.2-.3,1.1-1.6,2-3.4,2-3.4,0,0,0,.5.3,1.5.1.5.4,1,.6,1.4-1,.8-1.7,1.8-1.9,2.5-.4,1.2,0,1.7.5,1.9.3,0,.7,0,1-.2.4,0,.8-.3,1.2-.6.7-.5,1.4-1.2,1.3-2.2,0-.4-.1-.9-.3-1.3.9-.4,2-.6,3.5-.4,3.1.4,3.7,2.3,3.6,3.1-.1.8-.8,1.3-1,1.4s-.3.2-.3.3.1,0,.3,0c.3,0,1.6-.7,1.7-2.2,0-1.9-1.7-4-5-4l.3-.7ZM235.5,95c-1,1.1-2.5,1.6-3.1,1.2-.7-.4-.4-2.1.9-3.2.8-.7,1.8-1.4,2.4-1.8.2,0,.4-.2.6-.4h.2c.5,1.7,0,3.2-1.1,4.4v-.2ZM243.1,89.9c-.4.9-1.1,3.1-1.6,3-.4,0-.6-1.8,0-3.5.3-.8.9-1.9,1.2-2.3.6-.6,1.2-.8,1.3-.6.2.3-.7,2.8-.9,3.3h0ZM249.3,92.9c-.2,0-.3,0-.4,0h0c0,0,.8-.9,1.1-1.3.2-.2.4-.5.6-.8h0c0,1.1-1,1.8-1.4,2h0ZM254.1,91.8c-.1,0,0-.3.3-1.2.1-.3.5-.9,1.1-1.4,0,.2.1.4.1.6,0,1.3-.9,1.7-1.5,1.9h0Z"/>
            </g>
          </g>
          <g>
            <rect class="cls-44" x="277.6" y="61.9" width="46" height="46" rx="10.8" ry="10.8"/>
            <path class="cls-12" d="M291.9,74.2c-1.8,2.6-1.6,6-.2,8.8v.2c.1,0,.2,0,.2,0h0v.3c.1,0,.2,0,.2,0l.2.2h0c0,.2.1.3.2.4h0s.1.2.2.3h0l.2.3h0c0,.2.2.3.3.4h0s.2.2.3.3h0l.2.3h0c0,.2.2.3.3.3h0l.3.3h.1l.2.3h.1l.3.3h0s.2,0,.2.2h.1l.4.3h.1l.3.2h.4c0,0,.3.3.3.3h0c.1,0,.2,0,.4.2h0l.3.2h0c.1,0,.3,0,.4,0h0c.1,0,.3,0,.4,0,8.7,1.6,11.2-5.3,11.2-5.3-2.1,2.8-5.9,3.6-9.4,2.7-.1,0-.3,0-.4,0h0c-.1,0-.3,0-.4-.2h0c-.1,0-.2,0-.3,0h0c-.1,0-.2,0-.4-.2h0l-.3-.2h0s-.2,0-.2-.2h-.2c0,0-.2-.2-.3-.2h0c-.1,0-.2-.2-.4-.3h-.1l-.3-.2h0l-.2-.2h-.1l-.2-.3h-.1l-.3-.3h0s-.2-.2-.3-.3h0l-.2-.3h0c0-.2-.2-.3-.3-.4h0c0,0-.2-.2-.3-.3h0l-.2-.3h0l-.2-.4c-2-2.7-2.7-6.5-1.1-9.6l-1.4,1.8v.4ZM297.4,72c-1.3,1.9-1.2,4.4-.2,6.5.2.3.4.7.6,1s.4.6.7.8c0,0,.2.2.3.3h0s.2.2.3.3h0c.1,0,.2.2.4.3h0c.1.2.2.2.4.3h0s.1,0,.2,0h0s.2,0,.3.2h0l.2.2h.2c.1,0,.2,0,.3.2h0s.2,0,.3,0h.1s.2,0,.3,0h.1c.1,0,.2,0,.4,0,6.7,1.1,8.3-4.1,8.3-4.1-1.4,2-4.1,3-7,2.3-.1,0-.3,0-.4,0h-.5s-.2,0-.3-.2h0c-.1,0-.2,0-.4-.2h-.3l-.2-.2h0s-.2,0-.3-.2h-.2c-.1-.2-.2-.3-.4-.4h0c-1.3-1.1-2.3-2.5-2.7-4-.5-1.6-.4-3.5.5-4.9l-1.1,1.5h.1ZM302.1,70.4c-.8,1.1-.8,2.6-.3,3.8.6,1.3,1.7,2.4,3,2.9h.4c3.7.7,4.7-1.9,5-2.3-.9,1.3-2.4,1.6-4.2,1.2-.1,0-.3,0-.4,0-.2,0-.4,0-.5-.2-.3-.2-.6-.3-.9-.6-1.6-1.3-2.6-3.6-1.6-5.6"/>
            <path class="cls-12" d="M293.9,94.7l-.3.9.3-.9h0ZM295.2,96.6h-.3.3ZM295.2,98h-1.7,1.7ZM295.5,96.6h-.3.3ZM295.3,97.9l.3-1.1-.3,1.1ZM301.4,92.8l-.5,2.5.5-2.5ZM300,92.8l-.4,1.9.4-1.9Z"/>
            <path class="cls-12" d="M301.3,92.7h-1.1s-.1,0-.1,0l-.8,3.8s0,0-.1,0h-.8c-.8,0-.7-.6-.5-1.3h0v-.7l.4-1.8h0c0,0-1.2,0-1.2,0h0l-.5,2.5c-.3,1.3-.2,2.6,1.4,2.6h2.5s.1,0,.1,0l1.1-5.1h0c0,0-.4,0-.4,0ZM305.9,96.7s.1,0,0,0v.5c-.1,0,0-.7,0-.7h0ZM305.8,97.9v-.5c.1,0,0,.5,0,.5ZM305.6,98h-2.1,2.1Z"/>
            <path class="cls-12" d="M302.8,96s0-.2.1-.2h-.1c0,.6,0,.2,0,.2ZM303.6,98h0ZM305.9,96.7s.1,0,0,0v.6c-.1,0,0-.7,0-.7ZM304.1,98h0ZM303.9,98h0ZM303.8,98h0ZM303.7,98h0ZM303.9,98h0Z"/>
            <path class="cls-12" d="M304.1,98h-.3.3ZM305.6,98h-1.5,1.5ZM305.8,97.9v-.5.5h0ZM303.8,98h0ZM303.6,98h0ZM303.7,98h0ZM286.9,96l.2-.8-.2.9h0c0,0,0,0,0,0h0ZM289,92.7h-1.3l-.2,1.1h1.3s.1,0,.1,0l.2-1.1h0c0,0-.1,0-.1,0ZM288.7,94.4l-.4,1.7.4-1.7ZM285.1,100.1h1-1Z"/>
            <path class="cls-12" d="M287.2,94.4l-.2.8.2-.8ZM288.6,94.3h-1.3l-.4,1.6v.2l-.4,1.6v.2s-.2.7-.6.7h-.4l-.3,1.1h1c1,0,1.5-.5,1.9-2.1l.8-3.5h0c0,0-.3.2-.3.2ZM306.7,98s-.1,0,0,0l1-4.5-.9,4.6h-.1ZM308,97.8l.4-1.9-.4,1.9Z"/>
            <path class="cls-12" d="M306.6,97.9v-.2l.5-2.1-.5,2.2h0c0,0,.1,0,.1,0h-.2.1ZM308,97.9h-.2.1-.1.2ZM308.2,96.9l.2-.8-.2.8ZM312,93.7v.2h0"/>
            <path class="cls-12" d="M308.1,97.7l.2-.8-.2.8ZM311.9,93.4v.2-.2ZM308.4,96v-.2l.2-.9-.2,1h0ZM307.6,93.3v.2l-.5,2.1.5-2.2h0Z"/>
            <path class="cls-12" d="M312,93.9v-.5c-.2-.4-.5-.6-1.2-.6h-3v.5c-.1,0-1,4.4-1,4.4v.2h1.4s0,0,.1-.2l.4-1.8.4-1.8s0,0,.1,0h3s.1,0,0,0h-.2ZM315.9,91.9h-1.3l-2.1,3.1h0l-.2-.7h-1.4s-.1,0,0,0l.6,2.2v.2l-.3,1h1.4s.1,0,.1,0l.3-1v-.2l3.5-4.6h-.6ZM305,94.6s0,0-.1,0h-1.7c.2-.4.5-.7,1.1-.7s.9.4.8.7h0ZM304.5,92.6c-2.2,0-2.8,1.4-3.1,2.7-.3,1.4-.3,2.7,2,2.7h2.1l.2-1.1h0c0,0-2.1,0-2.1,0-.8,0-1.1-.2-1-.9h3.4c.5-1.9.4-3.1-1.8-3.1h0l.3-.2ZM294,94.6h0c0,0-.3,1-.3,1l-.3.9h-1.3c-1,0-1.3-.8-1-1.9.2-1.2.7-1.9,1.7-2,1.4,0,1.6.9,1.3,1.9h-.1ZM294.9,96.5s.6-1.5.8-2.4c.2-1.2-.4-2.9-2.7-2.9s-3.2,1.6-3.6,3.4.1,3.3,2.4,3.3h3.4l.3-1.1h-.6v-.3Z"/>
            <path class="cls-12" d="M306.1,95.5h0Z"/>
          </g>
          <g>
            <rect class="cls-25" x="331.5" y="61.9" width="46" height="46" rx="10.8" ry="10.8"/>
            <path class="cls-9" d="M353.1,67.5c.9-.5,2-.5,2.9,0,4.4,2.5,8.9,5,13.3,7.5.8.5,1.4,1.4,1.4,2.4v15.1c0,1-.6,2-1.5,2.4-4.4,2.5-8.9,5-13.3,7.5-.9.5-2.1.5-3,0-1.3-.8-2.7-1.5-4-2.3-.3-.2-.6-.3-.8-.6.2-.2.5-.3.7-.4.6-.2,1.1-.5,1.6-.7h.4c1.1.7,2.3,1.3,3.4,2,.2,0,.5,0,.7-.2,4.3-2.5,8.7-4.9,13-7.4.2,0,.3-.2.2-.4v-15c0-.2,0-.4-.3-.5-4.4-2.5-8.8-5-13.2-7.5-.2,0-.4,0-.5,0-4.4,2.5-8.8,5-13.2,7.5-.2,0-.3.3-.3.5v15c0,.2,0,.3.2.4,1.2.7,2.4,1.3,3.5,2,.7.4,1.5.6,2.2.3.6-.2,1.1-.9,1.1-1.6v-14.9c0-.2.2-.4.4-.4h1.7c.2,0,.4.2.4.5v15c0,1.3-.5,2.8-1.8,3.4-1.5.8-3.4.6-4.9,0-1.3-.6-2.5-1.4-3.8-2.1-.9-.5-1.5-1.4-1.5-2.4v-15.1c0-1,.6-1.9,1.4-2.4,4.4-2.5,8.9-5,13.3-7.5h.3Z"/>
            <path class="cls-9" d="M357,77.9c1.9,0,4,0,5.7.9,1.3.7,2.1,2.3,2.1,3.8s-.2.3-.4.3h-1.7c-.2,0-.4-.2-.4-.4-.2-.7-.6-1.4-1.2-1.8-1-.5-2.2-.5-3.4-.5s-1.7,0-2.4.6c-.5.4-.7,1.1-.5,1.7.2.4.7.6,1.1.7,2.3.6,4.8.5,7.1,1.3.9.3,1.9,1,2.2,2,.4,1.3.2,2.9-.7,4-.8.9-1.9,1.4-3,1.6-1.5.3-3,.3-4.5.2-1.4-.2-2.9-.5-4-1.5-.9-.8-1.4-2.1-1.3-3.3,0-.2.2-.3.4-.3h1.7c.2,0,.4.2.4.4.1.7.4,1.4,1,1.8,1.1.7,2.6.7,3.9.7s2.3,0,3.2-.8c.5-.4.6-1.1.5-1.7-.1-.5-.7-.7-1.1-.9-2.3-.7-4.8-.5-7.1-1.3-.9-.3-1.8-.9-2.2-1.9-.5-1.3-.3-3,.8-4,1-1,2.5-1.4,3.9-1.6h0"/>
          </g>
          <g>
            <rect class="cls-25" x="7.9" y="115.8" width="46" height="46" rx="10.8" ry="10.8"/>
            <path class="cls-12" d="M48.9,148.7c-.5.2-1.1.2-1.6,0s-1-.6-1.2-1.1c-1.6-2.4-3.4-4.8-5.2-7.1l-.7-1c-2.1,2.8-4.1,5.4-6,8.2-.2.5-.7.8-1.2,1s-1,.2-1.5,0l7.7-10.4-7.2-9.4c.5-.2,1.1-.2,1.6,0s1,.5,1.2,1c1.7,2.4,3.5,4.8,5.4,7.2,1.8-2.4,3.7-4.8,5.4-7.2.2-.5.7-.8,1.1-1,.5-.2,1-.2,1.5,0l-2.8,3.7c-1.2,1.6-2.5,3.3-3.8,4.9,0,0-.2.2-.2.3v.8c0,0,0,.2.2.3,2.4,3.2,4.8,6.3,7.2,9.6h0v.2Z"/>
            <path class="cls-12" d="M13,138.2c.2-1,.3-2.1.6-3.1,1.7-6.1,8.8-8.7,13.6-4.9,2.8,2.2,3.5,5.4,3.4,8.9H14.6c-.3,6.4,4.3,10.2,10.2,8.2,1-.3,1.8-.9,2.5-1.7s1.2-1.7,1.4-2.6c.3-1,.8-1.2,1.8-.9-.2,1.2-.6,2.4-1.3,3.4-.7,1-1.6,1.9-2.6,2.5-1.7,1-3.7,1.3-5.7,1.1-2-.3-3.8-1.1-5.2-2.5-1.4-1.6-2.3-3.6-2.5-5.8,0-.3-.1-.7-.2-1v-1.7h0ZM14.7,137.8h14.5c0-4.6-3-7.9-6.9-7.9s-7.4,3.1-7.6,7.9h0Z"/>
          </g>
          <g>
            <rect class="cls-25" x="61.9" y="115.8" width="46" height="46" rx="10.8" ry="10.8"/>
            <path class="cls-11" d="M99.5,146.7c-4.4,5.9-13.9,3.9-19.9,4.2,0,0-1.1,0-2.2.2,0,0,.4-.2.9-.4,4.3-1.5,6.3-1.8,8.9-3.1,4.9-2.5,9.7-7.9,10.7-13.5-1.8,5.4-7.5,10.1-12.6,12-3.5,1.3-9.8,2.6-9.8,2.6h-.3c-4.3-2.2-4.4-11.5,3.4-14.5,3.4-1.3,6.7-.6,10.4-1.5,4-.9,8.5-3.9,10.4-7.8,2.1,6.2,4.6,15.9,0,21.9h0ZM99.6,122.9c-.5,1.3-1.2,2.4-1.9,3.4-3.3-3.3-7.8-5.4-12.8-5.4-9.9,0-18,8.1-18,18s2.2,9.9,5.7,13.2l.4.3c-.7-.5-.8-1.5-.2-2.2.5-.7,1.5-.8,2.2-.2.7.5.8,1.5.2,2.2-.5.7-1.5.8-2.2.2l.3.2c3.1,2.6,7.2,4.2,11.5,4.2,9.5,0,17.2-7.4,17.9-16.7.5-4.6-.9-10.3-3.1-17.2Z"/>
          </g>
          <g>
            <rect class="cls-25" x="115.8" y="115.8" width="46" height="46" rx="10.8" ry="10.8"/>
            <g class="cls-31">
              <path class="cls-13" d="M152.4,147.8c-1.8,0-3.1.1-4.3.6-.3.1-.9.1-.9.5.2.2.2.5.4.7.3.4.7,1,1.1,1.3l1.4,1c.9.5,1.8.8,2.7,1.4.5.3,1,.7,1.5,1,.2.2.4.5.7.6h0c-.2-.3-.2-.5-.4-.8l-.7-.6c-.6-.9-1.4-1.6-2.3-2.2-.7-.5-2.2-1.1-2.5-1.9h0c.5,0,1.1-.3,1.5-.4.7-.2,1.4-.2,2.2-.3l1.1-.3v-.2c-.4-.4-.7-.9-1.1-1.3-1.1-1-2.4-1.9-3.6-2.7-.7-.4-1.6-.7-2.3-1.1-.3-.1-.7-.2-.9-.4-.4-.5-.6-1.1-.9-1.7l-1.8-3.8c-.4-.9-.6-1.7-1.1-2.5-2.3-3.7-4.7-6-8.5-8.2-.8-.5-1.8-.7-2.8-.9h-1.7c-.4-.2-.7-.7-1-.9-1.3-.8-4.5-2.5-5.4-.2-.6,1.4.9,2.8,1.4,3.5.4.5.9,1.1,1.1,1.6,0,.4.2.8.4,1.2.4,1,.7,2,1.1,2.9.2.5.5.9.8,1.4.2.2.5.4.6.7-.3.4-.3,1.1-.5,1.6-.8,2.5-.5,5.5.6,7.4.4.5,1.2,1.7,2.3,1.3,1-.4.8-1.6,1.1-2.7,0-.3,0-.4.2-.6h0l.9,1.9c.7,1.1,1.9,2.2,2.9,2.9.5.4.9,1.1,1.6,1.3h0c-.1-.2-.3-.3-.5-.4-.4-.4-.8-.9-1.1-1.3-.9-1.2-1.7-2.6-2.5-4-.4-.7-.7-1.4-.9-2.1-.1-.3-.1-.7-.4-.8-.3.5-.8.9-1.1,1.5-.4.9-.5,2.1-.6,3.3h0c-.7-.2-.9-.9-1.2-1.5-.7-1.6-.8-4-.2-5.8.2-.5.8-1.9.6-2.3-.1-.4-.6-.7-.8-1-.3-.4-.6-.9-.8-1.4-.5-1.2-.8-2.6-1.4-3.8s-.7-1.2-1.1-1.7c-.4-.6-.9-1-1.2-1.7,0-.2-.3-.6,0-.9,0-.2,0-.2.3-.3.3-.2,1.1,0,1.4.2.8.3,1.5.6,2.2,1.1.3.2.6.6,1,.7h.5c.7.2,1.5,0,2.2.2,1.2.4,2.2.9,3.2,1.5,2.9,1.8,5.3,4.4,6.9,7.5.3.5.4,1,.6,1.5.5,1.1,1,2.2,1.5,3.2s.9,2.1,1.6,2.9c.3.5,1.7.7,2.2.9.4.2,1.1.4,1.5.6.7.5,1.5,1,2.2,1.5.4.3,1.5.8,1.5,1.2h-.5ZM130,128.8c-.3,0-.6,0-.9.1h0c.2.4.5.6.7.9l.5,1.1h0c.3-.3.5-.6.5-1.1-.1-.2-.2-.3-.3-.5s-.4-.3-.6-.5h.1Z"/>
            </g>
          </g>
          <g class="cls-51">
            <g>
              <path class="cls-58" d="M180.5,115.8c-6,0-10.8,4.8-10.8,10.8v24.5c0,6,4.8,10.8,10.8,10.8h19.5c-.3-.9-.6-2.4-.7-4.1-.1-1.5-.2-3.1,0-4.7v-.4s-.3-2.3-.8-4.1c-.2-.8-.5-1.6-.7-2-.1-.2,0-1.1.4-2.5.2.4,1.1,2,1.3,2.5.2.6.2.7.2.7,0,0-.5-2.6-1.3-4.1.2-.6.4-1.3.6-2,.3.5.9,1.6,1.2,2.2h0v.3c.1.4.2.5.2.5,0,0,0-.2-.1-.6,0-.2,0-.4-.1-.6-.2-.8-.5-1.8-.9-2.6,1-5.4,4.3-12.4,7.9-16.2.3-.3.6-.6.9-.9,2.1-1.9,4.2-2.5,6-.9,1.3,1.1,1.8,2.7,1.8,4.5v-.3c0-6-4.8-10.8-10.8-10.8h-24.6Z"/>
              <path class="cls-43" d="M180.5,115.8c-6,0-10.8,4.8-10.8,10.8v24.5c0,6,4.8,10.8,10.8,10.8h19.5c-.3-.9-.6-2.4-.7-4.1-.1-1.5-.2-3.1,0-4.7v-.4s-.3-2.3-.8-4.1c-.2-.8-.5-1.6-.7-2-.1-.2,0-1.1.4-2.5.2.4,1.1,2,1.3,2.5.2.6.2.7.2.7,0,0-.5-2.6-1.3-4.1.2-.6.4-1.3.6-2,.3.5.9,1.6,1.2,2.2h0v.3c.1.4.2.5.2.5,0,0,0-.2-.1-.6,0-.2,0-.4-.1-.6-.2-.8-.5-1.8-.9-2.6,1-5.4,4.3-12.4,7.9-16.2.3-.3.6-.6.9-.9,2.1-1.9,4.2-2.5,6-.9,1.3,1.1,1.8,2.7,1.8,4.5v-.3c0-6-4.8-10.8-10.8-10.8h-24.6Z"/>
              <path class="cls-53" d="M214,122.4c-1.7-1.6-3.9-.9-6,.9-.3.3-.6.6-.9.9-3.6,3.8-6.9,10.8-7.9,16.2.4.8.7,1.9.9,2.6,0,.2.1.4.1.6,0,.4.1.6.1.6,0,0,0-.1-.2-.5v-.2h0c-.2-.6-.9-1.8-1.2-2.3-.2.7-.5,1.4-.6,2,.8,1.5,1.3,4.1,1.3,4.1,0,0,0-.2-.2-.7s-1.1-2.1-1.3-2.5c-.4,1.4-.5,2.3-.4,2.5.3.4.5,1.2.7,2,.5,1.9.8,4.1.8,4.1v5.1c.2,1.9.5,3.6.8,4.5h.3c-.6-1.9-.8-4.2-.7-6.9.2-4.1,1.1-9,2.8-14.1,2.9-7.7,7-13.9,10.7-16.8-3.4,3-8,12.9-9.3,16.6-1.5,4.1-2.6,7.9-3.3,11.6,1.1-3.4,4.8-4.9,4.8-4.9,0,0,1.8-2.2,3.9-5.4-1.3.3-3.3.8-4,1.1-1,.4-1.3.6-1.3.6,0,0,3.3-2,6.1-2.9,3.9-6.1,8.1-14.8,3.9-18.6"/>
              <path class="cls-53" d="M174.9,124.6c-.6,0-1,.2-1.3.5s-.5.7-.5,1.3,0,.5.1.7c0,.2.2.4.4.6s.5.4,1.1.8c.7.4,1.1.7,1.3,1,.2.2.3.5.3.8s-.1.7-.4.9c-.3.2-.6.3-1,.3s-.8-.2-1.1-.5-.5-.7-.5-1.2h-.2v1.8h.2c0-.2.1-.3.3-.3s.2,0,.4.1c.5.2.9.3,1.2.3.5,0,1-.2,1.4-.6.4-.4.6-.8.6-1.4s-.1-.8-.4-1.1c-.2-.3-.7-.7-1.5-1.1-.6-.4-1-.7-1.2-.9-.2-.2-.3-.5-.3-.8s.1-.6.3-.7c.2-.2.5-.3.9-.3s.8,0,1,.4c.3.2.4.6.5,1h.2v-1.6h-.2v.2h-.4c-.4,0-.7-.2-1-.2h-.2ZM181.5,124.6c-.7,0-1.3.2-1.8.5-.6.3-1,.7-1.3,1.3-.3.6-.5,1.1-.5,1.8s.3,1.6.8,2.2c.6.7,1.2,1.1,2,1.2.2,0,.4.3.8.7.4.4.7.7,1,.9s.5.3.8.4c.3,0,.6.1,1,.1s.8,0,1.1-.2v-.2c-.3,0-.5.1-.7.1s-.6,0-.9-.3c-.3-.2-.7-.6-1.1-1.1-.2-.3-.4-.4-.4-.5.9-.2,1.6-.6,2.1-1.2.5-.7.8-1.4.8-2.2s-.4-1.8-1.1-2.5c-.7-.7-1.6-1-2.6-1h0ZM185.7,124.6v.2c.5,0,.7,0,.8.4v5.2c0,.4,0,.6-.2.7,0,0-.3.2-.5.2v.2h4.4v-1.1c.1,0,0,0,0,0,0,.3-.2.5-.4.6s-.6.2-1.1.2h-.4c-.5,0-.8-.2-.8-.5v-5c0-.4,0-.6.2-.7,0,0,.3-.2.5-.2v-.2h-2.5ZM181.6,124.9c.8,0,1.4.3,1.9.9s.7,1.4.7,2.4-.2,1.8-.7,2.3c-.5.6-1.1.9-1.9.9s-1.4-.3-1.9-.9c-.5-.6-.7-1.4-.7-2.4s.2-1.8.7-2.4,1.1-.9,1.9-.9h0ZM191.8,125.9c-.1,0-.2,0-.3,0v.3c0,0,0,.2.2.3,0,0,.2,0,.3,0s.2,0,.2,0v-.3c0,0,0-.2-.2-.3,0,0-.2,0-.3,0h.1ZM194.8,126.6c-.2.7-.6,1.1-1.2,1.1v.2h.7v3.2c0,.3.3.5.7.5s1.1-.3,1.7-1h-.2c-.4.3-.8.5-1.1.5s-.3-.1-.4-.3v-2.9h1.1v-.3h-1.1v-1s-.2,0-.2,0ZM199,127.5c-.6,0-1.1.3-1.5.9-.4.6-.5,1.2-.4,1.9,0,.4.3.7.5,1,.3.2.6.3,1,.3s.9,0,1.1-.3c.2-.2.4-.5.6-.9l-.2-.2c-.3.6-.9.8-1.4.8s-1-.3-1.2-1v-.3c.8-.1,1.3-.3,1.7-.6s.8-.6.7-1c0-.2-.2-.4-.3-.5-.2,0-.6-.2-.8-.2h.2ZM192.3,127.5l-1.3.3v.2h.5c.2,0,.4,0,.4.2v2.4c0,.3,0,.5-.1.5h-.5v.2h2.1v-.2h-.6l-.2-.2v-3.5h-.3ZM198.7,127.9c.1,0,.3,0,.4,0,.1,0,.2.2.2.3.1.6-.4,1-1.5,1.2,0-.4,0-.8.2-1.1s.4-.5.7-.5h0Z"/>
            </g>
          </g>
          <g>
            <rect class="cls-25" x="223.7" y="115.8" width="46" height="46" rx="10.8" ry="10.8"/>
            <path class="cls-12" d="M246.7,121.2c-9.9,0-18,8-18,18s5.2,14.7,12.3,17.1c.9.2,1.2-.4,1.2-.9v-3.3c-5,1.1-6.1-2.1-6.1-2.1-.8-2.1-2-2.6-2-2.6-1.6-1.1.1-1.1.1-1.1,1.8.1,2.8,1.9,2.8,1.9,1.6,2.7,4.2,2,5.2,1.5.2-1.2.6-2,1.1-2.4-4-.5-8.2-2-8.2-8.9s.7-3.6,1.9-4.8c-.2-.5-.8-2.3.2-4.8,0,0,1.5-.5,4.9,1.8,1.4-.4,3-.6,4.5-.6s3.1.2,4.5.6c3.4-2.3,4.9-1.8,4.9-1.8,1,2.5.4,4.3.2,4.8,1.2,1.3,1.9,2.9,1.9,4.8,0,6.9-4.2,8.4-8.2,8.9.6.6,1.2,1.7,1.2,3.3v4.9c0,.6.3,1,1.2.9,7.1-2.4,12.3-9.1,12.3-17.1s-8-18-18-18h.1ZM235.4,146.8s-.2.1-.3,0c-.1,0-.2-.2-.2-.3,0,0,.2-.1.3,0,.1,0,.2.2.2.3ZM236.3,147.6h-.4c-.1-.1-.1-.3,0-.4h.4c.1.1.1.3,0,.4ZM236.9,148.6c-.1,0-.3,0-.4-.2-.1-.2-.1-.4,0-.4s.3,0,.4.2c.1.2.1.4,0,.4ZM238,149.8c0,.1-.3,0-.5,0-.2-.1-.2-.4-.1-.5,0-.1.3,0,.5,0,.2.1.2.4,0,.5h.1ZM239.3,150.2c0,.1-.2.2-.4.1-.2,0-.3-.2-.3-.4s.2-.2.5-.1c.2,0,.3.2.3.4h-.1ZM240.8,150.3c0,.1-.2.3-.4.3s-.4-.1-.4-.3.2-.3.4-.3.4.1.4.3ZM242.3,150.3c0,.1-.1.3-.3.3s-.4,0-.4-.2.1-.3.3-.3.4,0,.4.2Z"/>
          </g>
          <g>
            <rect class="cls-46" x="277.6" y="115.8" width="46" height="46" rx="10.8" ry="10.8"/>
            <g class="cls-39">
              <path class="cls-12" d="M317.9,137.2l-15.7-15.7c-.2-.2-.5-.4-.8-.5s-.6-.2-.9-.2-.6,0-.9.2c-.3,0-.5.3-.8.5l-3.3,3.3,4.1,4.1c1-.3,2.1-.1,2.8.7.4.4.6.8.7,1.3s0,1,0,1.5l4,4c1-.3,2.1-.1,2.8.7.3.3.5.6.6.9.1.3.2.7.2,1.1s0,.7-.2,1.1c-.1.3-.3.6-.6.9-.3.3-.6.5-.9.6s-.7.2-1.1.2-.7,0-1.1-.2c-.3-.1-.6-.3-.9-.6-.8-.8-1-2-.6-3l-3.7-3.7v9.8c.3.1.5.3.7.5.3.3.5.6.6.9.1.3.2.7.2,1.1s0,.7-.2,1.1c-.1.3-.3.6-.6.9s-.6.5-.9.6-.7.2-1.1.2-.7,0-1.1-.2c-.3-.1-.6-.3-.9-.6s-.5-.6-.6-.9c-.1-.3-.2-.7-.2-1.1s0-.7.2-1.1c.1-.3.3-.6.6-.9.3-.3.6-.5.9-.6v-9.9c-.3-.1-.6-.3-.9-.6-.4-.4-.6-.9-.8-1.4-.1-.5,0-1.1.2-1.6l-4.1-4.1-10.8,10.8c-.2.2-.4.5-.5.8s-.2.6-.2.9,0,.6.2.9c.1.3.3.5.5.8l15.7,15.7c.2.2.5.4.8.5s.6.2.9.2.6,0,.9-.2c.3-.1.5-.3.8-.5l15.6-15.6c.2-.2.4-.5.5-.8s.2-.6.2-.9,0-.6-.2-.9c-.1-.3-.3-.5-.5-.8"/>
            </g>
          </g>
          <g class="cls-6">
            <g>
              <path class="cls-25" d="M366.8,115.8h-24.5c-6,0-10.8,4.8-10.8,10.8v24.5c0,6,4.8,10.8,10.8,10.8h24.5c6,0,10.8-4.8,10.8-10.8v-24.5c0-6-4.8-10.8-10.8-10.8Z"/>
              <g class="cls-37">
                <g>
                  <path class="cls-12" d="M340.6,124.3l17.4-1.3c2.1-.2,2.7,0,4,.9l5.6,3.9c.9.7,1.2.9,1.2,1.6v21.5c0,1.3-.5,2.1-2.2,2.3l-20.2,1.2c-1.3,0-1.9-.1-2.6-1l-4.1-5.3c-.7-1-1-1.7-1-2.6v-19.1c0-1.1.5-2,1.9-2.1h0Z"/>
                  <path class="cls-18" d="M358,123.1l-17.4,1.3c-1.4,0-1.9,1-1.9,2.1v19.1c0,.9.3,1.6,1,2.6l4.1,5.3c.7.9,1.3,1,2.6,1l20.2-1.2c1.7-.1,2.2-.9,2.2-2.3v-21.5c0-.7-.3-.9-1.1-1.5l-5.7-4c-1.3-1-1.9-1.1-4-.9h0ZM346.9,129.1c-1.7.1-2,.1-3-.6l-2.4-1.9c-.2-.2-.1-.6.5-.6l16.7-1.2c1.4,0,2.1.4,2.7.8l2.9,2.1c.1,0,.4.4,0,.4l-17.3,1h-.2,0ZM345,150.8v-18.2c0-.8.2-1.2,1-1.2l19.9-1.2c.7,0,1,.4,1,1.2v18.1c0,.8-.1,1.5-1.2,1.5l-19,1.1c-1.1,0-1.6-.3-1.6-1.3h0ZM363.7,133.5c.1.6,0,1.1-.6,1.2l-.9.2v13.5c-.8.4-1.5.7-2.1.7-1,0-1.2-.3-2-1.2l-6-9.4v9.1l1.9.4s0,1.1-1.5,1.1l-4.2.2c-.1-.2,0-.9.4-1l1.1-.3v-12h-1.5c-.1-.7.2-1.5,1-1.5l4.5-.3,6.2,9.5v-8.4l-1.6-.2c-.1-.7.4-1.2,1-1.2l4.2-.2v-.2Z"/>
                </g>
              </g>
            </g>
          </g>
          <g>
            <rect class="cls-54" x="7.9" y="169.7" width="46" height="46" rx="10.8" ry="10.8"/>
            <path class="cls-10" d="M26.8,197.8h-7.1l-1.5,4.5c0,.2-.2.3-.4.3h-3.6c-.2,0-.3-.1-.2-.3l6.2-17.7c0-.2.1-.4.2-.6,0-.4.1-.8.1-1.2,0,0,0-.2.2-.2h5c.1,0,.2,0,.2.2l7,19.6c0,.2,0,.3-.2.3h-4c-.1,0-.3,0-.3-.2l-1.6-4.6h0ZM20.8,194h4.9c-.1-.4-.3-.9-.4-1.4-.2-.5-.3-1.1-.5-1.6-.2-.6-.4-1.2-.6-1.8s-.4-1.2-.5-1.7c-.2-.5-.3-1-.4-1.5h0c-.2.8-.4,1.6-.7,2.5-.3.9-.6,1.9-.9,2.8-.2,1-.6,1.9-.8,2.7h-.1Z"/>
            <path class="cls-10" d="M44.2,196.1h-6.1c0,.6.3,1.2.6,1.7s.8.9,1.4,1.2c.8.3,1.6.5,2.5.5s1.3,0,2-.2c.6,0,1.2-.2,1.7-.4,0,0,.2,0,.2.2v3.1h0c-.6.4-1.2.6-1.9.7-.9.2-1.8.2-2.7.2-1.5,0-2.7-.2-3.7-.7-.9-.4-1.8-1-2.4-1.8-.6-.7-1.1-1.6-1.3-2.5-.3-.9-.4-1.8-.4-2.8s.2-2.1.5-3c.3-1,.8-1.8,1.4-2.6.6-.8,1.4-1.4,2.3-1.8.9-.4,2-.6,3.2-.6s2,.2,3,.6c.8.3,1.5.9,2,1.5.5.7.9,1.4,1.2,2.2.2.8.4,1.6.4,2.3v2c0,.1,0,.2-.3.2h-3.5ZM38.1,193.3h5.1c.2,0,.3,0,.4-.2v-.2c0-.2,0-.5,0-.7-.3-1.1-1.4-1.8-2.5-1.8s-2.1.5-2.6,1.5c-.2.4-.4.9-.4,1.4h0Z"/>
          </g>
          <g>
            <rect class="cls-19" x="61.9" y="169.7" width="46" height="46" rx="10.8" ry="10.8"/>
            <path class="cls-60" d="M84.1,197.1h-7.1l-1.5,4.5c0,.2-.2.3-.4.3h-3.6c-.2,0-.3-.1-.2-.3l6.2-17.8c0-.2,0-.4.2-.6,0-.4,0-.8,0-1.2,0,0,0-.2.2-.2h5q.2,0,.2.2l7,19.8c0,.2,0,.3-.2.3h-4c0,0-.3,0-.3-.2l-1.6-4.6h0v-.2ZM78.1,193.2h4.9c0-.4-.3-.9-.4-1.4-.2-.5-.3-1.1-.5-1.6-.2-.6-.4-1.2-.6-1.8s-.4-1.2-.5-1.7c-.2-.5-.3-1-.4-1.5h0c-.2.8-.4,1.6-.7,2.5-.3.9-.6,1.9-.9,2.8-.3,1-.6,1.9-.8,2.7h0Z"/>
            <path class="cls-60" d="M94.5,185c-.6,0-1.2-.2-1.7-.7-.4-.5-.7-1.1-.7-1.8s.2-1.3.7-1.7,1.1-.7,1.7-.7,1.3.2,1.7.7c.4.5.7,1.1.6,1.7,0,.7-.2,1.3-.7,1.8-.4.5-1.1.7-1.7.7h0ZM92.3,201.7v-14.8c0-.2,0-.3.2-.3h3.8q.2,0,.2.3v14.8c0,.2,0,.3-.2.3h-3.8c-.2,0-.3-.1-.3-.3h.1Z"/>
          </g>
          <g>
            <rect class="cls-26" x="115.8" y="169.7" width="46" height="46" rx="10.8" ry="10.8"/>
            <path class="cls-49" d="M126.2,201.7v-19.7c0-.1,0-.2.2-.2h6c1.6,0,2.9.2,4,.6,1,.3,1.8.9,2.6,1.6.6.6,1.1,1.4,1.4,2.2.3.8.4,1.6.4,2.5,0,1.6-.4,3-1.2,4.1s-1.8,1.9-3.1,2.3c-1.3.5-2.7.7-4.3.7s-.8,0-1,0h-.8v6.2c0,.1,0,.2-.2.3h-3.7q-.2,0-.2-.2v-.4ZM130.3,185.5v6.4h1.7c.7,0,1.5-.1,2.2-.3.6-.2,1.2-.5,1.6-1,.4-.5.6-1.1.6-2s-.1-1.2-.4-1.7c-.3-.5-.8-.9-1.3-1.1-.7-.3-1.5-.4-2.3-.4h-2.1Z"/>
            <path class="cls-49" d="M152.6,190.8c-.6-.3-1.2-.5-1.8-.7-.7-.2-1.4-.2-2.1-.2s-.8,0-1.2.1c-.2,0-.5.2-.6.4,0,.2-.2.3-.2.5s0,.3.2.5.4.4.7.5c.4.2.9.4,1.4.6,1,.3,2,.8,3,1.4.6.4,1.2.9,1.5,1.6.3.6.5,1.3.4,2,0,.9-.2,1.8-.7,2.6s-1.3,1.4-2.1,1.7c-.9.4-2.1.6-3.5.6s-1.7,0-2.6-.2c-.7-.1-1.3-.3-2-.6-.1,0-.2-.2-.2-.4v-3.5h.2c.7.4,1.5.7,2.4.9.7.2,1.5.3,2.3.3s1.2,0,1.6-.3c.3-.1.5-.5.5-.8s-.2-.5-.5-.8c-.3-.2-.9-.5-1.9-.9-1-.3-1.9-.8-2.7-1.4-.6-.4-1.1-1-1.5-1.6-.3-.6-.5-1.3-.4-2,0-.8.2-1.6.7-2.3.5-.8,1.2-1.4,2-1.8.9-.5,2-.7,3.4-.7s1.6,0,2.4.2c.6,0,1.1.2,1.6.4,0,0,.2,0,.2.2v3.5h-.3l-.2.2Z"/>
          </g>
          <g>
            <rect class="cls-54" x="169.7" y="169.7" width="46" height="46" rx="10.8" ry="10.8"/>
            <path class="cls-10" d="M179.4,202.6v-19.8c0-.1,0-.2.2-.2h6c1.6,0,2.9.2,4,.6,1,.3,1.8.9,2.6,1.6.6.6,1.1,1.4,1.4,2.2.3.8.4,1.6.4,2.5,0,1.6-.4,3-1.2,4.1s-1.8,1.9-3.1,2.3c-1.3.5-2.7.7-4.3.7s-.8,0-1,0h-.8v6.2c0,.1,0,.2-.2.3h-3.7q-.2,0-.2-.2h0v-.3ZM183.6,186.3v6.4h1.7c.7,0,1.5-.1,2.2-.3.6-.2,1.2-.5,1.6-1,.4-.5.6-1.1.6-2s-.1-1.2-.4-1.7c-.3-.5-.8-.9-1.3-1.1-.7-.3-1.5-.4-2.3-.4h-2.1Z"/>
            <path class="cls-10" d="M196.7,187.5h3.4c.2,0,.3.1.4.3,0,.2,0,.3.1.5v1.3c.6-.7,1.3-1.2,2.1-1.6.9-.5,1.9-.7,2.9-.7s.2,0,.3.2h0v3.8q0,.2-.3.2c-.7,0-1.4,0-2.1.2-.6.1-1.1.3-1.6.5-.4.2-.7.4-1,.7v9.8c0,.2,0,.3-.2.3h-3.8c-.2,0-.3,0-.3-.2h0v-14.9s0-.2.1-.2h0v-.2Z"/>
          </g>
          <g>
            <rect class="cls-2" x="223.7" y="169.7" width="46" height="46" rx="10.8" ry="10.8"/>
            <path class="cls-33" d="M247.8,184.2l-5.4,8.9,5.8,9.4v.2h-4.3c-.3,0-.5,0-.6-.2-.4-.8-.8-1.5-1.2-2.2s-.8-1.5-1.2-2.3-.9-1.5-1.3-2.3h0c-.4.8-.8,1.5-1.2,2.3s-.8,1.5-1.2,2.3-.8,1.5-1.2,2.3c0,.2-.2.2-.4.2h-4.1v-.2l5.6-9.2-5.4-9.2v-.2h4.6s.1,0,.2.2c.3.8.7,1.5,1.2,2.3.4.8.8,1.5,1.3,2.3.4.8.8,1.5,1.2,2.3h0c.4-.8.8-1.6,1.2-2.3.4-.8.8-1.5,1.2-2.3s.8-1.5,1.2-2.3c0,0,0-.1.1-.2h4s.2,0,.2.1h0c0,.1-.3,0-.3,0Z"/>
            <path class="cls-33" d="M256.1,203.1c-1.3,0-2.7-.3-3.9-.8-1.1-.5-2.1-1.4-2.7-2.4-.7-1.1-1-2.5-1-4.1s.3-2.6,1-3.8,1.7-2.1,2.9-2.8c1.3-.7,2.8-1,4.5-1s.2,0,.4,0h.6v-5.7c0-.1,0-.2.2-.2h3.6s.2,0,.2.1h0v19.3c0,.1,0,.2-.2.3-.9.4-1.9.7-2.9.9-.9.2-1.8.3-2.8.3h0ZM257.9,199.5v-7.9h-1.1c-.7,0-1.4.1-2,.5-.6.3-1.1.8-1.5,1.3-.4.6-.6,1.3-.6,2.3s0,1.3.3,1.9c.2.5.4.9.8,1.3s.8.6,1.2.7c.5.2,1,.2,1.5.2h1.4v-.3Z"/>
          </g>
          <g>
            <rect class="cls-25" x="277.6" y="169.7" width="46" height="46" rx="10.8" ry="10.8"/>
            <path class="cls-41" d="M310.1,186l-2.4,2.4c3.9,3.9,3.9,10.3,0,14.2s-10.3,3.9-14.2,0c-3.9-3.9-3.9-10.3,0-14.2l6.2-6.2.9-.9v-4.7l-9.4,9.4c-5.3,5.3-5.3,13.7,0,19s13.7,5.3,18.9,0c5.3-5.3,5.3-13.7,0-19Z"/>
            <path class="cls-41" d="M305.4,185.4c1,0,1.8-.8,1.8-1.8s-.8-1.8-1.8-1.8-1.8.8-1.8,1.8.8,1.8,1.8,1.8Z"/>
          </g>
          <g>
            <rect class="cls-25" x="331.5" y="169.7" width="46" height="46" rx="10.8" ry="10.8"/>
            <path class="cls-34" d="M350.2,191.8c-1.6-.9-2.9-2.4-3.6-4.1-.7-1.7-.8-3.6-.4-5.4.5-1.8,1.5-3.4,3-4.5s3.3-1.7,5.1-1.7,3.7.6,5.1,1.7c1.5,1.1,2.5,2.7,3,4.5s.4,3.7-.4,5.4c-.7,1.7-2,3.1-3.6,4.1l-2.5-4.4c.6-.4,1.1-.9,1.4-1.6.3-.7.3-1.4.1-2.2-.2-.7-.6-1.3-1.2-1.8-.6-.4-1.3-.7-2-.7s-1.5.2-2,.7c-.6.4-1,1.1-1.2,1.8s-.1,1.5.1,2.2c.3.7.8,1.3,1.4,1.6l-2.5,4.4h.2Z"/>
            <path class="cls-59" d="M368.3,193.8c1.6.9,2.9,2.4,3.6,4.1.7,1.7.8,3.6.4,5.4-.5,1.8-1.5,3.4-3,4.5s-3.3,1.7-5.1,1.7-3.7-.6-5.1-1.7c-1.5-1.1-2.5-2.7-3-4.5s-.4-3.7.4-5.4c.7-1.7,2-3.1,3.6-4.1l2.5,4.4c-.6.4-1.1.9-1.4,1.6-.3.7-.3,1.4-.1,2.2.2.7.6,1.3,1.2,1.8.6.4,1.3.7,2,.7s1.5-.2,2-.7c.6-.4,1-1.1,1.2-1.8s.1-1.5-.1-2.2c-.3-.7-.8-1.3-1.4-1.6l2.5-4.4h-.2Z"/>
            <path class="cls-17" d="M353.4,201.1c0,1.9-.6,3.7-1.7,5.1-1.1,1.5-2.7,2.5-4.5,3s-3.7.4-5.4-.4c-1.7-.7-3.1-2-4.1-3.6-.9-1.6-1.3-3.5-1.1-5.3.2-1.8,1.1-3.6,2.4-4.9,1.3-1.3,3-2.2,4.9-2.4,1.8-.2,3.7.1,5.3,1.1l-2.5,4.4c-.6-.4-1.4-.5-2.1-.4-.7,0-1.4.4-1.9,1-.5.5-.9,1.2-1,1.9,0,.7,0,1.5.4,2.1s.9,1.1,1.6,1.4c.7.3,1.4.3,2.2.1.7-.2,1.3-.6,1.8-1.2.4-.6.7-1.3.7-2h5.1,0Z"/>
          </g>
        </g>
      </g>
    </g>
  </g>
</svg>